Coordinates
version=1
nRows=65
nColumns=12
inDegrees=yes

Units are S.I. units (second, meters, Newtons, ...)
Angles are in degrees

endheader
time	SC_y	SC_z	SC_x	AC_y	AC_z	AC_x	GH_y	GH_z	GH_yy	EL_x	PS_y
       0.0              -15.05         0.7959          12.49           59.7         -3.991         -1.554          17.34         -8.119         -164.5          133.2          8.025
   0.03638              -15.05         0.7957          12.49           59.7         -3.993         -1.555          17.32         -8.111         -164.5          133.2          8.033
   0.07276              -15.06         0.7955          12.49           59.7         -3.996         -1.558           17.3         -8.102         -164.5          133.2          8.042
    0.1091              -15.06         0.7953          12.49           59.7         -3.998          -1.56          17.28         -8.094         -164.5          133.2          8.051
    0.1455              -15.07          0.795          12.49           59.7         -4.001         -1.562          17.26         -8.084         -164.5          133.2           8.06
    0.1819              -15.08         0.7948          12.48          59.71         -4.004         -1.565          17.23         -8.074         -164.5          133.2           8.07
    0.2183              -15.09         0.7945          12.48          59.71         -4.007         -1.567          17.21         -8.064         -164.5          133.2          8.081
    0.2547              -15.09         0.7942          12.48          59.71         -4.011          -1.57          17.18         -8.052         -164.4          133.2          8.093
    0.2911               -15.1         0.7939          12.48          59.71         -4.014         -1.573          17.15          -8.04         -164.4          133.2          8.105
    0.3274              -15.11         0.7936          12.47          59.71         -4.018         -1.576          17.12         -8.027         -164.4          133.2          8.119
    0.3638              -15.12         0.7932          12.47          59.72         -4.022          -1.58          17.09         -8.013         -164.4          133.2          8.133
    0.4002              -15.13         0.7929          12.47          59.72         -4.027         -1.584          17.06         -7.997         -164.4          133.2          8.149
    0.4366              -15.14         0.7925          12.47          59.72         -4.032         -1.588          17.02         -7.981         -164.3          133.2          8.165
     0.473              -15.16          0.792          12.46          59.72         -4.037         -1.592          16.98         -7.963         -164.3          133.2          8.183
    0.5093              -15.17         0.7915          12.46          59.73         -4.043         -1.597          16.93         -7.944         -164.3          133.2          8.203
    0.5457              -15.19          0.791          12.45          59.73         -4.049         -1.602          16.89         -7.923         -164.3          133.2          8.224
    0.5821               -15.2         0.7904          12.45          59.73         -4.056         -1.608          16.83         -7.901         -164.2          133.2          8.247
    0.6185              -15.22         0.7898          12.44          59.74         -4.063         -1.614          16.78         -7.876         -164.2          133.2          8.272
    0.6549              -15.24         0.7891          12.44          59.74         -4.071         -1.621          16.71          -7.85         -164.2          133.2          8.299
    0.6913              -15.26         0.7884          12.43          59.75          -4.08         -1.628          16.65          -7.82         -164.1          133.2          8.329
    0.7276              -15.28         0.7876          12.42          59.75         -4.089         -1.636          16.57         -7.788         -164.1          133.1          8.362
     0.764              -15.31         0.7867          12.42          59.76           -4.1         -1.645          16.49         -7.752         -164.0          133.1          8.398
    0.8004              -15.34         0.7857          12.41          59.76         -4.112         -1.654           16.4         -7.713         -164.0          133.1          8.438
    0.8368              -15.37         0.7846           12.4          59.77         -4.125         -1.665           16.3          -7.67         -163.9          133.1          8.483
    0.8732               -15.4         0.7834          12.39          59.78         -4.139         -1.677          16.19         -7.621         -163.8          133.1          8.532
    0.9095              -15.44         0.7821          12.38          59.79         -4.155         -1.691          16.06         -7.568         -163.8          133.1          8.587
    0.9459              -15.48         0.7805          12.37           59.8         -4.173         -1.706          15.92         -7.507         -163.7          133.1          8.648
    0.9823              -15.53         0.7788          12.35          59.81         -4.193         -1.723          15.77         -7.439         -163.6          133.1          8.718
     1.019              -15.58         0.7769          12.34          59.82         -4.216         -1.742          15.59         -7.362         -163.5          133.0          8.796
     1.055              -15.65         0.7747          12.32          59.84         -4.242         -1.763          15.39         -7.275         -163.4          133.0          8.885
     1.091              -15.72         0.7722           12.3          59.85         -4.272         -1.788          15.16         -7.176         -163.2          133.0          8.986
     1.128               -15.8         0.7694          12.27          59.87         -4.306         -1.817          14.89         -7.062         -163.1          133.0          9.102
     1.164              -15.89          0.766          12.25           59.9         -4.345         -1.849          14.59          -6.93         -162.9          132.9          9.237
     1.201               -16.0         0.7622          12.21          59.92         -4.391         -1.888          14.24         -6.777         -162.7          132.9          9.393
     1.237              -16.13         0.7577          12.18          59.95         -4.444         -1.932          13.82         -6.598         -162.4          132.8          9.575
     1.273              -16.28         0.7524          12.13          59.99         -4.507         -1.985          13.33         -6.386         -162.2          132.8          9.791
      1.31              -16.46         0.7461          12.08          60.03         -4.582         -2.047          12.75         -6.136         -161.8          132.7          10.05
     1.346              -16.67         0.7385          12.02          60.08         -4.672         -2.122          12.06         -5.835         -161.4          132.6          10.35
     1.383              -16.93         0.7294          11.94          60.14          -4.78         -2.213          11.22         -5.471         -160.9          132.5          10.72
     1.419              -17.25         0.7182          11.85          60.21         -4.913         -2.324          10.19         -5.026         -160.3          132.4          11.18
     1.455              -17.64         0.7044          11.74           60.3         -5.076          -2.46          8.922         -4.477         -159.5          132.3          11.74
     1.492              -18.13         0.6872          11.59          60.42          -5.28         -2.631          7.341         -3.793         -158.6          132.1          12.43
     1.528              -18.74         0.6656          11.41          60.56         -5.538         -2.845          5.349         -2.931         -157.4          131.9          13.31
     1.564              -19.52          0.638          11.19          60.74         -5.864         -3.118          2.816         -1.835         -155.9          131.6          14.43
     1.601              -20.52         0.6028          10.89          60.97         -6.282         -3.467        -0.4248        -0.4325         -154.0          131.3          15.86
     1.637               -21.8         0.5576          10.52          61.27         -6.819         -3.915         -4.584          1.367         -151.5          130.8          17.69
     1.674              -23.43         0.4998          10.04          61.66         -7.505         -4.488         -9.897          3.667         -148.3          130.2          20.04
      1.71              -25.49         0.4272          9.438          62.14         -8.367         -5.208         -16.58          6.558         -144.4          129.5          22.98
     1.746               -28.0         0.3387          8.705          62.72         -9.417         -6.085         -24.72          10.08         -139.5          128.5          26.58
     1.783              -30.91         0.2361          7.855           63.4         -10.63         -7.102         -34.16          14.16         -133.9          127.5          30.74
     1.819              -34.05          0.125          6.934          64.13         -11.95         -8.203         -44.37          18.59         -127.8          126.4          35.24
     1.855               -37.2        0.01389          6.014          64.87         -13.27         -9.304         -54.59          23.01         -121.7          125.2          39.75
     1.892              -40.11       -0.08871          5.163          65.55         -14.49         -10.32         -64.03          27.09         -116.1          124.2          43.91
     1.928              -42.61        -0.1772           4.43          66.13         -15.54          -11.2         -72.17          30.61         -111.3          123.3           47.5
     1.965              -44.67        -0.2499          3.828          66.61          -16.4         -11.92         -78.85          33.51         -107.3          122.5          50.45
     2.001              -46.31        -0.3076          3.349           67.0         -17.09         -12.49         -84.16           35.8         -104.1          121.9          52.79
     2.037              -47.59        -0.3528          2.975          67.29         -17.62         -12.94         -88.32           37.6         -101.7          121.5          54.63
     2.074              -48.59        -0.3881          2.683          67.53         -18.04         -13.29         -91.56          39.01         -99.73          121.1          56.06
      2.11              -49.37        -0.4156          2.455          67.71         -18.37         -13.56         -94.09           40.1         -98.23          120.8          57.18
     2.147              -49.98        -0.4373          2.275          67.85         -18.63         -13.78         -96.09          40.96         -97.04          120.6          58.05
     2.183              -50.47        -0.4545          2.133          67.97         -18.83         -13.95         -97.67          41.65          -96.1          120.4          58.75
     2.219              -50.86        -0.4683          2.018          68.06         -18.99         -14.08         -98.94           42.2         -95.35          120.3          59.31
     2.256              -51.18        -0.4794          1.926          68.13         -19.13         -14.19         -99.96          42.64         -94.74          120.2          59.76
     2.292              -51.44        -0.4886           1.85          68.19         -19.23         -14.28         -100.8          43.01         -94.23          120.1          60.14
     2.328              -51.65        -0.4961          1.787          68.24         -19.32         -14.36         -101.5          43.31         -93.82          120.0          60.44
